<svg xmlns="http://www.w3.org/2000/svg" viewBox="0 0 222.41 122.77"><defs><style>.cls-1{fill:#0578be;}.cls-2{fill:#e71d73;}.cls-3{fill:#575756;}</style></defs><title>Fichier 1</title><g id="Calque_2" data-name="Calque 2"><g id="Calque_1-2" data-name="Calque 1"><path class="cls-1" d="M19.23,101.64,11.76,87.21H3.13v14.43H.76V70.32H12.68c5.1,0,9,3,9,8.4,0,4.66-2.81,7.7-7.21,8.45L22,101.64ZM12.37,72.43H3.13V85.1h9.24c4,0,6.91-2,6.91-6.33S16.37,72.43,12.37,72.43Z"/><path class="cls-1" d="M37.14,101.64V70.32h19v2.11H39.51V84.79H53.67V86.9H39.51V99.53H56.14v2.11Z"/><path class="cls-1" d="M70.92,101.64V70.32h19v2.11H73.29V84.79H87.46V86.9H73.29V99.53H89.92v2.11Z"/><path class="cls-1" d="M112.62,101.64h-2L100.3,70.32h2.51l8.8,27.14,8.79-27.14h2.51Z"/><path class="cls-2" d="M152.56,98.69a11.15,11.15,0,0,1-15.66,0C134,95.83,134,93.06,134,86s0-9.85,2.91-12.71a11.15,11.15,0,0,1,15.66,0c2.85,2.86,2.9,5.63,2.9,12.71S155.41,95.83,152.56,98.69Zm-1.9-24.1a8.49,8.49,0,0,0-11.87,0c-2.25,2.24-2.42,4.66-2.42,11.39s.17,9.15,2.42,11.39a8.49,8.49,0,0,0,11.87,0c2.25-2.24,2.42-4.66,2.42-11.39S152.91,76.83,150.66,74.59Z"/><path class="cls-1" d="M171.38,101.64V70.32h2.38V99.53h16.62v2.11Z"/><path class="cls-1" d="M211.85,101.9c-4.66,0-7.57-1.27-10.43-4.13l1.68-1.67A10.94,10.94,0,0,0,212,99.79c4.93,0,8.05-2.37,8.05-6.46a5.67,5.67,0,0,0-1.71-4.4c-1.15-1-2-1.28-4.54-1.67l-3.65-.58a10.87,10.87,0,0,1-5.58-2.28,7.15,7.15,0,0,1-2.47-5.77c0-5.23,3.74-8.57,9.73-8.57a12.36,12.36,0,0,1,9,3.38L219.28,75a10.19,10.19,0,0,0-7.61-2.9c-4.53,0-7.25,2.51-7.25,6.47A5,5,0,0,0,206,82.64a10,10,0,0,0,4.67,1.93l3.38.53c2.95.44,4.27,1,5.59,2.07a7.71,7.71,0,0,1,2.73,6.07C222.41,98.52,218.36,101.9,211.85,101.9Z"/><path class="cls-2" d="M108.51,58a29,29,0,1,1,29-29A29,29,0,0,1,108.51,58Zm0-55.4A26.41,26.41,0,1,0,134.92,29,26.44,26.44,0,0,0,108.51,2.59Z"/><path class="cls-1" d="M94.9,44.53V21.3a14.91,14.91,0,0,1,2.39-7.58,14.81,14.81,0,1,1,18.91,21.4ZM109.73,9.58a12.28,12.28,0,0,0-2.55.27A12.22,12.22,0,0,0,97.5,21.34V40.55l17.6-7.79a12.22,12.22,0,0,0-5.37-23.18Z"/><polygon class="cls-1" points="138.71 49.09 117.49 39.5 96.27 49.09 95.2 46.73 117.49 36.65 139.78 46.73 138.71 49.09"/><path class="cls-2" d="M109.4,27.05a4.72,4.72,0,0,1-2.61-.78,4.8,4.8,0,1,1,6.64-1.4h0a4.79,4.79,0,0,1-3,2.08A4.85,4.85,0,0,1,109.4,27.05Z"/><path class="cls-1" d="M140.49,6a3,3,0,1,1,3-3A3,3,0,0,1,140.49,6Zm0-5.41A2.39,2.39,0,0,0,138.1,3a2.39,2.39,0,1,0,4.77,0A2.38,2.38,0,0,0,140.49.55Zm.63,4-.66-1.27h-.41V4.58h-.6V1.37h1.21a1,1,0,0,1,1,1,.91.91,0,0,1-.63.88l.71,1.35Zm-.53-2.71h-.54v1h.54a.49.49,0,1,0,0-1Z"/><path class="cls-3" d="M4.83,122.71l-.42-1.26H1.88l-.43,1.26H0l2.59-7.11H3.68l2.6,7.11Zm-1.66-5-.9,2.58H4Z"/><path class="cls-3" d="M10.32,122.77c-1,0-2.33-.56-2.33-2.67s1.29-2.65,2.33-2.65a2.22,2.22,0,0,1,1.72.7l-.88.87a1,1,0,0,0-.84-.4.87.87,0,0,0-.74.34,1.73,1.73,0,0,0-.29,1.14,1.8,1.8,0,0,0,.29,1.16.9.9,0,0,0,.74.34,1.05,1.05,0,0,0,.84-.41l.88.87A2.23,2.23,0,0,1,10.32,122.77Z"/><path class="cls-3" d="M16.13,122.77c-1,0-2.33-.56-2.33-2.67s1.29-2.65,2.33-2.65a2.22,2.22,0,0,1,1.72.7L17,119a1,1,0,0,0-.84-.4.87.87,0,0,0-.74.34,1.73,1.73,0,0,0-.29,1.14,1.8,1.8,0,0,0,.29,1.16.9.9,0,0,0,.74.34,1.05,1.05,0,0,0,.84-.41l.88.87A2.23,2.23,0,0,1,16.13,122.77Z"/><path class="cls-3" d="M20.89,120.51A1.08,1.08,0,0,0,22,121.67a1.44,1.44,0,0,0,1.18-.49L24,122a2.48,2.48,0,0,1-2,.82c-1.23,0-2.41-.56-2.41-2.67,0-1.69.92-2.65,2.27-2.65a2.24,2.24,0,0,1,2.27,2.48v.58Zm1.86-1.45a1,1,0,0,0-1.74,0,1.48,1.48,0,0,0-.12.56h2A1.48,1.48,0,0,0,22.75,119.06Zm-.52-2.38h-.87L22,115h1.37Z"/><path class="cls-3" d="M28,122.71a1.42,1.42,0,0,1-1.52-1.49V115.6h1.3v5.54c0,.31.13.47.46.47h.5v1.1Z"/><path class="cls-3" d="M32,120.51a1.08,1.08,0,0,0,1.14,1.16,1.44,1.44,0,0,0,1.18-.49l.79.77a2.48,2.48,0,0,1-2,.82c-1.23,0-2.41-.56-2.41-2.67,0-1.69.92-2.65,2.27-2.65a2.24,2.24,0,0,1,2.27,2.48v.58Zm.7-3.83L31.56,115h1.37l.64,1.7Zm1.16,2.38a1,1,0,0,0-1.74,0,1.48,1.48,0,0,0-.12.56h2A1.48,1.48,0,0,0,33.86,119.06Z"/><path class="cls-3" d="M40.48,118.93a.84.84,0,0,0-.69-.31.86.86,0,0,0-.84.95v3.14h-1.3v-5.2h1.27v.5a1.76,1.76,0,0,1,1.31-.56,1.57,1.57,0,0,1,1.23.49Z"/><path class="cls-3" d="M44.1,120.51a1.08,1.08,0,0,0,1.14,1.16,1.44,1.44,0,0,0,1.18-.49l.79.77a2.48,2.48,0,0,1-2,.82c-1.23,0-2.41-.56-2.41-2.67,0-1.69.92-2.65,2.27-2.65a2.24,2.24,0,0,1,2.27,2.48v.58ZM46,119.06a1,1,0,0,0-1.74,0,1.48,1.48,0,0,0-.12.56h2A1.48,1.48,0,0,0,46,119.06Z"/><path class="cls-3" d="M55.51,122.71h-1l-1.92-5.2h1.37L55,120.72l1-3.21h1.37Z"/><path class="cls-3" d="M62.88,122.13a2.16,2.16,0,0,1-1.62.64,2.14,2.14,0,0,1-1.61-.64,3.75,3.75,0,0,1,0-4,2.14,2.14,0,0,1,1.61-.64,2.16,2.16,0,0,1,1.62.64,3.81,3.81,0,0,1,0,4Zm-1-3.28a.82.82,0,0,0-.61-.23.8.8,0,0,0-.6.23,1.72,1.72,0,0,0-.3,1.25,1.79,1.79,0,0,0,.3,1.27.8.8,0,0,0,.6.23.82.82,0,0,0,.61-.23,1.79,1.79,0,0,0,.3-1.27A1.72,1.72,0,0,0,61.87,118.85Z"/><path class="cls-3" d="M67.61,122.77a2.83,2.83,0,0,1-2.22-.75l.85-.85a1.89,1.89,0,0,0,1.39.49c.45,0,.92-.15.92-.54s-.14-.44-.55-.48l-.82-.08c-.94-.09-1.52-.5-1.52-1.46s1-1.65,2-1.65a2.77,2.77,0,0,1,2,.61l-.8.81a1.81,1.81,0,0,0-1.21-.35c-.52,0-.74.24-.74.5s.08.41.54.45l.82.07c1,.1,1.55.65,1.55,1.53C69.82,122.22,68.84,122.77,67.61,122.77Z"/><path class="cls-3" d="M77.24,122.71a1.41,1.41,0,0,1-1.51-1.49v-2.58h-.55v-1h.55v-1.54H77v1.54H78v1H77v2.5c0,.3.14.47.45.47H78v1.1Z"/><path class="cls-3" d="M83.15,118.93a.84.84,0,0,0-.69-.31.86.86,0,0,0-.84.95v3.14h-1.3v-5.2h1.27v.5a1.76,1.76,0,0,1,1.31-.56,1.54,1.54,0,0,1,1.22.49Z"/><path class="cls-3" d="M88.62,122.71v-.45a1.55,1.55,0,0,1-1.27.5A1.78,1.78,0,0,1,86,122.3a1.67,1.67,0,0,1-.43-1.17c0-.83.57-1.51,1.78-1.51H88.6v-.26c0-.56-.28-.81-1-.81a1.14,1.14,0,0,0-1,.42l-.83-.8a2.19,2.19,0,0,1,1.88-.72c1.45,0,2.21.62,2.21,1.83v3.43Zm0-2.2h-1c-.47,0-.73.22-.73.59s.24.6.75.6a1,1,0,0,0,.82-.25.86.86,0,0,0,.19-.66Z"/><path class="cls-3" d="M95.51,122.71v-3.15a.82.82,0,0,0-.85-.94.84.84,0,0,0-.87.94v3.15h-1.3v-5.2h1.27V118a1.78,1.78,0,0,1,1.3-.54,1.65,1.65,0,0,1,1.22.46,1.92,1.92,0,0,1,.53,1.48v3.32Z"/><path class="cls-3" d="M101.12,122.77A2.83,2.83,0,0,1,98.9,122l.85-.85a1.89,1.89,0,0,0,1.39.49c.44,0,.91-.15.91-.54s-.13-.44-.54-.48l-.82-.08c-.94-.09-1.52-.5-1.52-1.46s1-1.65,2-1.65a2.73,2.73,0,0,1,2,.61l-.79.81a1.81,1.81,0,0,0-1.21-.35c-.52,0-.74.24-.74.5s.08.41.54.45l.82.07c1,.1,1.54.65,1.54,1.53C103.32,122.22,102.34,122.77,101.12,122.77Z"/><path class="cls-3" d="M108.28,122.71v-.45a1.58,1.58,0,0,1-1.28.5,1.78,1.78,0,0,1-1.33-.46,1.67,1.67,0,0,1-.43-1.17c0-.83.57-1.51,1.78-1.51h1.23v-.26c0-.56-.28-.81-1-.81a1.14,1.14,0,0,0-1,.42l-.83-.8a2.19,2.19,0,0,1,1.88-.72c1.46,0,2.21.62,2.21,1.83v3.43Zm0-2.2h-1c-.47,0-.73.22-.73.59s.24.6.75.6a1,1,0,0,0,.82-.25.86.86,0,0,0,.19-.66Z"/><path class="cls-3" d="M114.21,122.77c-1,0-2.33-.56-2.33-2.67s1.29-2.65,2.33-2.65a2.21,2.21,0,0,1,1.71.7L115,119a1,1,0,0,0-.83-.4.87.87,0,0,0-.74.34,1.73,1.73,0,0,0-.29,1.14,1.8,1.8,0,0,0,.29,1.16.9.9,0,0,0,.74.34,1,1,0,0,0,.83-.41l.88.87A2.22,2.22,0,0,1,114.21,122.77Z"/><path class="cls-3" d="M119.76,122.71a1.41,1.41,0,0,1-1.51-1.49v-2.58h-.55v-1h.55v-1.54h1.3v1.54h.91v1h-.91v2.5c0,.3.14.47.45.47h.46v1.1Z"/><path class="cls-3" d="M122.82,116.62v-1.06h1.33v1.06Zm0,6.09v-5.2h1.3v5.2Z"/><path class="cls-3" d="M130.37,122.13a2.16,2.16,0,0,1-1.62.64,2.13,2.13,0,0,1-1.6-.64,3.75,3.75,0,0,1,0-4,2.13,2.13,0,0,1,1.6-.64,2.16,2.16,0,0,1,1.62.64,3.75,3.75,0,0,1,0,4Zm-1-3.28a.86.86,0,0,0-.62-.23.79.79,0,0,0-.59.23,1.72,1.72,0,0,0-.3,1.25,1.79,1.79,0,0,0,.3,1.27.79.79,0,0,0,.59.23.86.86,0,0,0,.62-.23,1.84,1.84,0,0,0,.3-1.27A1.77,1.77,0,0,0,129.37,118.85Z"/><path class="cls-3" d="M136.42,122.71v-3.15a.83.83,0,0,0-.85-.94.84.84,0,0,0-.87.94v3.15h-1.3v-5.2h1.27V118a1.78,1.78,0,0,1,1.29-.54,1.69,1.69,0,0,1,1.23.46,1.92,1.92,0,0,1,.53,1.48v3.32Z"/><path class="cls-3" d="M142,122.77a2.83,2.83,0,0,1-2.22-.75l.85-.85a1.88,1.88,0,0,0,1.38.49c.46,0,.92-.15.92-.54s-.13-.44-.54-.48l-.82-.08c-.94-.09-1.52-.5-1.52-1.46a1.78,1.78,0,0,1,2-1.65,2.77,2.77,0,0,1,2,.61l-.8.81a1.8,1.8,0,0,0-1.2-.35c-.52,0-.74.24-.74.5s.08.41.54.45l.81.07c1,.1,1.55.65,1.55,1.53C144.23,122.22,143.25,122.77,142,122.77Z"/><path class="cls-3" d="M150,116.62v-1.06h1.33v1.06Zm0,6.09v-5.2h1.3v5.2Z"/><path class="cls-3" d="M160,122.71v-3.15a.87.87,0,1,0-1.73,0v3.18H157v-3.15a.86.86,0,1,0-1.72,0v3.15H154v-5.2h1.27V118a1.81,1.81,0,0,1,1.3-.54,1.61,1.61,0,0,1,1.37.66,2,2,0,0,1,1.56-.66,1.82,1.82,0,0,1,1.28.46,2,2,0,0,1,.57,1.48v3.32Z"/><path class="cls-3" d="M170,122.71v-3.15a.87.87,0,1,0-1.73,0v3.18h-1.3v-3.15a.87.87,0,1,0-1.73,0v3.15h-1.29v-5.2h1.27V118a1.8,1.8,0,0,1,1.29-.54,1.61,1.61,0,0,1,1.38.66,2,2,0,0,1,1.56-.66,1.82,1.82,0,0,1,1.28.46,2,2,0,0,1,.57,1.48v3.32Z"/><path class="cls-3" d="M177.46,122.13a2.16,2.16,0,0,1-1.62.64,2.13,2.13,0,0,1-1.6-.64,3.75,3.75,0,0,1,0-4,2.13,2.13,0,0,1,1.6-.64,2.16,2.16,0,0,1,1.62.64,3.75,3.75,0,0,1,0,4Zm-1-3.28a.86.86,0,0,0-.62-.23.78.78,0,0,0-.59.23,1.72,1.72,0,0,0-.3,1.25,1.79,1.79,0,0,0,.3,1.27.78.78,0,0,0,.59.23.86.86,0,0,0,.62-.23,1.84,1.84,0,0,0,.29-1.27A1.77,1.77,0,0,0,176.46,118.85Z"/><path class="cls-3" d="M184.31,122.3a1.81,1.81,0,0,1-1.27.47,1.58,1.58,0,0,1-1.29-.55v.49h-1.26V115.6h1.3V118a1.51,1.51,0,0,1,1.25-.52,1.81,1.81,0,0,1,1.27.47,3,3,0,0,1,.53,2.18A3.11,3.11,0,0,1,184.31,122.3Zm-1.64-3.68c-.78,0-.88.64-.88,1.48s.1,1.5.88,1.5.87-.65.87-1.5S183.44,118.62,182.67,118.62Z"/><path class="cls-3" d="M187.26,116.62v-1.06h1.33v1.06Zm0,6.09v-5.2h1.3v5.2Z"/><path class="cls-3" d="M192.68,122.71a1.41,1.41,0,0,1-1.51-1.49V115.6h1.29v5.54c0,.31.13.47.46.47h.5v1.1Z"/><path class="cls-3" d="M195.64,116.62v-1.06H197v1.06Zm0,6.09v-5.2H197v5.2Z"/><path class="cls-3" d="M200.62,120.51a1.07,1.07,0,0,0,1.13,1.16,1.44,1.44,0,0,0,1.18-.49l.79.77a2.47,2.47,0,0,1-2,.82c-1.23,0-2.41-.56-2.41-2.67,0-1.69.92-2.65,2.26-2.65a2.24,2.24,0,0,1,2.27,2.48v.58Zm.7-3.83-1.14-1.7h1.36l.64,1.7Zm1.15,2.38a1,1,0,0,0-1.73,0,1.48,1.48,0,0,0-.12.56h2A1.48,1.48,0,0,0,202.47,119.06Z"/><path class="cls-3" d="M209.09,118.93a.84.84,0,0,0-.69-.31.86.86,0,0,0-.84.95v3.14h-1.29v-5.2h1.27v.5a1.72,1.72,0,0,1,1.3-.56,1.57,1.57,0,0,1,1.23.49Z"/><path class="cls-3" d="M212.71,120.51a1.08,1.08,0,0,0,1.14,1.16,1.44,1.44,0,0,0,1.18-.49l.79.77a2.48,2.48,0,0,1-2,.82c-1.22,0-2.4-.56-2.4-2.67,0-1.69.92-2.65,2.27-2.65a2.24,2.24,0,0,1,2.26,2.48v.58Zm1.86-1.45a.91.91,0,0,0-.86-.53.92.92,0,0,0-.88.53,1.69,1.69,0,0,0-.12.56h2A1.48,1.48,0,0,0,214.57,119.06Z"/><path class="cls-3" d="M220.07,122.77a2.81,2.81,0,0,1-2.21-.75l.85-.85a1.86,1.86,0,0,0,1.38.49c.45,0,.92-.15.92-.54s-.14-.44-.55-.48l-.82-.08c-.93-.09-1.52-.5-1.52-1.46a1.79,1.79,0,0,1,2-1.65,2.77,2.77,0,0,1,2,.61l-.8.81a1.81,1.81,0,0,0-1.21-.35c-.52,0-.73.24-.73.5s.08.41.53.45l.82.07c1,.1,1.55.65,1.55,1.53C222.28,122.22,221.3,122.77,220.07,122.77Z"/></g></g></svg>